<svg fill="none" height="606" width="572" xmlns="http://www.w3.org/2000/svg" xmlns:xlink="http://www.w3.org/1999/xlink"><clipPath id="a"><path d="m0 0h572v606h-572z"/></clipPath><g clip-path="url(#a)" clip-rule="evenodd" fill-rule="evenodd"><path d="m58 167 1-4 1-5 44-158 468 1-517 421 236-285h-177l-10 1c-21 1-40 14-46 29" fill="#808285"/><path d="m547 289c0-2-15 89-40 183l-489 3 528-427-237 287h178l10-1c21-1 43-30 50-45" fill="#ed1c24"/><path d="m83 606h-83l57-78h-38l3-22h79l-57 78h42zm16 0 13-100h57l-3 22h-32l-2 17h30l-2 22h-31l-2 17h32l-3 22zm74 0 13-100h25l29 52 2 6 4 11a220 220 0 0 1 1-19l6-50h25l-13 100h-24l-29-51-3-7-4-11a237 237 0 0 1 -1 20l-6 49zm113 0 13-100h26l-13 100zm60 0 10-76h-21l3-24h68l-3 24h-21l-10 76zm59 0 13-100h26l-5 39h34l5-39h26l-13 100h-26l5-41h-34l-5 41z" fill="#808285"/></g></svg>